<?xml version="1.0" encoding="UTF-8" standalone="no"?>
<!DOCTYPE svg PUBLIC "-//W3C//DTD SVG 1.1//EN" "http://www.w3.org/Graphics/SVG/1.1/DTD/svg11.dtd">
<svg width="100%" height="100%" viewBox="0 0 497 618" version="1.1" xmlns="http://www.w3.org/2000/svg" xmlns:xlink="http://www.w3.org/1999/xlink" xml:space="preserve" xmlns:serif="http://www.serif.com/" style="fill-rule:evenodd;clip-rule:evenodd;stroke-linecap:round;stroke-linejoin:round;stroke-miterlimit:1.5;">
    <g transform="matrix(1,0,0,1,-1102.02,-1286.56)">
        <g transform="matrix(1.96068,0,0,1.96068,-1800.12,-3214.57)">
            <g transform="matrix(0.510026,0,0,0.510026,856.024,1365.73)">
                <path d="M1223.75,2192.53L1223.75,1823.36L1719.8,1823.36L1719.8,2192.53C1719.8,2329.42 1608.67,2440.56 1471.78,2440.56C1334.89,2440.56 1223.75,2329.42 1223.75,2192.53Z" style="fill:rgb(208,36,7);"/>
            </g>
            <path d="M1586.52,2537L1569.45,2518.19C1547.53,2533.74 1524.35,2536.89 1504.29,2518.89C1490.4,2506.43 1489.27,2465.93 1500.4,2465.79C1503.32,2465.75 1503.33,2475.72 1506.65,2481.15C1509.38,2485.62 1513.28,2490.23 1524.88,2490.27C1534.6,2490.3 1539.59,2481.61 1539.83,2471.08C1540.04,2461.58 1535.05,2455.9 1524.31,2454.46C1511.98,2454.79 1513.08,2463.01 1509.53,2463.21C1507.14,2463.34 1503.83,2453.83 1505.71,2445.49C1507.12,2439.21 1508.74,2437.81 1515.16,2432.69C1517.01,2431.21 1518.36,2428.69 1512.73,2426.78C1509.51,2425.68 1505,2424.05 1502.64,2418.64C1501.45,2415.9 1500.19,2411.72 1501.55,2410.33C1502.92,2408.94 1506.81,2408.59 1509.94,2409.79C1507.1,2405.82 1504.33,2396.4 1503.63,2385.06C1501.32,2383.29 1499.46,2380.37 1497.86,2376.82C1496.27,2372.85 1495.52,2368.88 1495.9,2364.91C1496.44,2361.42 1497.95,2360.17 1501.02,2362.51L1504.4,2366.87C1506.47,2356.14 1507.74,2352.79 1509.33,2350.68C1508.24,2345.26 1508.12,2341.68 1508.98,2335.97C1510.26,2332.62 1511.66,2330.15 1513.64,2329.9C1516.03,2329.6 1518.08,2336.71 1517.61,2339.57C1522.13,2333.51 1527.84,2327.43 1536.09,2325.32C1537.83,2322.8 1540.1,2320.51 1542.92,2319.24C1548.63,2317.96 1549.16,2320.24 1547.45,2324.49C1560.99,2323.62 1569.44,2329.19 1576.52,2337.84C1580.18,2337.68 1585.08,2338.17 1588.39,2339.6C1591.62,2340.99 1595.2,2343.59 1596.42,2346.41C1597.64,2349.23 1597.5,2353.58 1595.72,2356.52C1598.49,2358.84 1600.56,2361.37 1601.39,2363.93C1603.78,2371.27 1601.44,2376.57 1594.74,2372.64L1583.22,2363.6C1582.55,2365.92 1581.67,2367.85 1579.92,2368.62C1578.16,2369.39 1574.96,2367.97 1573.28,2368.74C1571.61,2369.51 1569.86,2370.83 1569.85,2373.23C1569.83,2376.88 1567.87,2379.75 1565.41,2382.65C1562.61,2385.45 1559.13,2386.61 1554.59,2386.75C1554.59,2389.12 1554.15,2392.1 1552.45,2394.24C1552.27,2396.82 1552.04,2399.76 1552.28,2401.68C1554.12,2401.39 1556.47,2401.34 1558.21,2401.46C1566.7,2389.24 1582.17,2392.42 1581.53,2408.11C1581.32,2413.32 1576.29,2414.32 1575.89,2407.86C1575.29,2397.95 1563.25,2400.64 1563.83,2410.56C1571.82,2411.47 1571.09,2414.08 1569.25,2421.93C1602.42,2436.64 1610.1,2476.2 1592.07,2500.9C1592.07,2500.9 1598.29,2507.45 1606.5,2516.06C1614.71,2507.45 1620.93,2500.9 1620.93,2500.9C1602.91,2476.2 1610.58,2436.64 1643.76,2421.93C1641.92,2414.08 1641.18,2411.47 1649.18,2410.56C1649.76,2400.64 1637.72,2397.95 1637.11,2407.86C1636.72,2414.32 1631.69,2413.32 1631.47,2408.11C1630.83,2392.42 1646.3,2389.24 1654.79,2401.46C1656.54,2401.34 1658.89,2401.39 1660.73,2401.68C1660.96,2399.76 1660.74,2396.82 1660.56,2394.24C1658.86,2392.1 1658.41,2389.12 1658.41,2386.75C1653.88,2386.61 1650.39,2385.45 1647.6,2382.65C1645.14,2379.75 1643.17,2376.88 1643.15,2373.23C1643.14,2370.83 1641.4,2369.51 1639.72,2368.74C1638.04,2367.97 1634.85,2369.39 1633.08,2368.62C1631.34,2367.85 1630.46,2365.92 1629.79,2363.6L1618.26,2372.64C1611.56,2376.57 1609.23,2371.27 1611.61,2363.93C1612.44,2361.37 1614.51,2358.84 1617.28,2356.52C1615.5,2353.58 1615.37,2349.23 1616.59,2346.41C1617.81,2343.59 1621.39,2340.99 1624.61,2339.6C1627.93,2338.17 1632.83,2337.68 1636.48,2337.84C1643.56,2329.19 1652.02,2323.62 1665.55,2324.49C1663.85,2320.24 1664.37,2317.96 1670.08,2319.24C1672.9,2320.51 1675.18,2322.8 1676.91,2325.32C1685.17,2327.43 1690.87,2333.51 1695.4,2339.57C1694.93,2336.71 1696.97,2329.6 1699.37,2329.9C1701.34,2330.15 1702.74,2332.62 1704.03,2335.97C1704.89,2341.68 1704.77,2345.26 1703.67,2350.68C1705.27,2352.79 1706.54,2356.14 1708.6,2366.87L1711.98,2362.51C1715.06,2360.17 1716.57,2361.42 1717.11,2364.91C1717.48,2368.88 1716.74,2372.85 1715.14,2376.82C1713.54,2380.37 1711.69,2383.29 1709.37,2385.06C1708.68,2396.4 1705.9,2405.82 1703.07,2409.79C1706.2,2408.59 1710.09,2408.94 1711.45,2410.33C1712.82,2411.72 1711.56,2415.9 1710.36,2418.64C1708.01,2424.05 1703.5,2425.68 1700.28,2426.78C1694.65,2428.69 1695.99,2431.21 1697.84,2432.69C1704.26,2437.81 1705.88,2439.21 1707.29,2445.49C1709.17,2453.83 1705.86,2463.34 1703.47,2463.21C1699.92,2463.01 1701.02,2454.79 1688.7,2454.46C1677.96,2455.9 1672.97,2461.58 1673.18,2471.08C1673.41,2481.61 1678.41,2490.3 1688.12,2490.27C1699.72,2490.23 1703.62,2485.62 1706.36,2481.15C1709.68,2475.72 1709.69,2465.75 1712.6,2465.79C1723.73,2465.93 1722.61,2506.43 1708.72,2518.89C1688.66,2536.89 1665.48,2533.74 1643.56,2518.19L1626.49,2537C1635.06,2545.95 1642.51,2553.7 1644.92,2556.12C1647.33,2558.53 1643.94,2563.04 1638.74,2564.27C1635.82,2565.2 1632.91,2565.32 1629.99,2563.89C1625.76,2561.32 1621.43,2561.66 1617.03,2564.24C1614.97,2565.74 1612.92,2565.53 1610.87,2563.82L1606.5,2559.01L1602.14,2563.82C1600.09,2565.53 1598.04,2565.74 1595.98,2564.24C1591.57,2561.66 1587.25,2561.32 1583.02,2563.89C1580.1,2565.32 1577.18,2565.2 1574.26,2564.27C1569.06,2563.04 1565.67,2558.53 1568.08,2556.12C1570.5,2553.7 1577.95,2545.95 1586.52,2537ZM1571.69,2437.56C1564.47,2437.56 1558.61,2443.42 1558.61,2450.64C1558.61,2457.86 1564.47,2463.73 1571.69,2463.73C1578.91,2463.73 1584.77,2457.86 1584.77,2450.64C1584.77,2443.42 1578.91,2437.56 1571.69,2437.56ZM1569.86,2441.28C1570.08,2440.45 1570.83,2439.87 1571.69,2439.87C1572.55,2439.87 1573.3,2440.45 1573.52,2441.28L1575.09,2447.24L1581.06,2448.82C1581.89,2449.03 1582.46,2449.78 1582.46,2450.64C1582.46,2451.5 1581.89,2452.25 1581.06,2452.47L1575.09,2454.04L1573.52,2460.01C1573.3,2460.84 1572.55,2461.42 1571.69,2461.42C1570.83,2461.42 1570.08,2460.84 1569.86,2460.01L1568.29,2454.04L1562.33,2452.47C1561.5,2452.25 1560.92,2451.5 1560.92,2450.64C1560.92,2449.78 1561.5,2449.03 1562.33,2448.82L1568.29,2447.24L1569.86,2441.28ZM1547.25,2414.38C1544.65,2412.33 1542.78,2409.49 1542.61,2407C1542.27,2403.69 1544.07,2401.97 1547.17,2401.84C1547.38,2398.85 1547.17,2397.12 1546.8,2394.22C1545.36,2392.56 1544.77,2390.03 1544.82,2386.89C1541.68,2386.09 1539.07,2383.39 1536.3,2380.73C1534.85,2382.33 1532.04,2384.38 1528.37,2384.8C1525.61,2384.39 1523.9,2382.24 1523.74,2379.47C1523.43,2374.48 1528.66,2372.12 1532.25,2371.99C1536.84,2371.84 1543.75,2376.07 1545.54,2378.41C1544.82,2375.08 1544.06,2369.45 1544.59,2364.99C1545.16,2360.15 1547.59,2350.79 1550.53,2350.78C1553.15,2350.77 1555.28,2359.28 1555.84,2364.96C1556.31,2369.78 1555.9,2373.18 1554.77,2379.51C1557.75,2378.31 1559.8,2376.89 1560.65,2372.68C1561.57,2366.9 1563.15,2366.33 1565.21,2364.82C1567.05,2363.47 1569.09,2363.12 1573.23,2362.77C1573.31,2361.65 1577.84,2359.72 1579.11,2359.7C1576.93,2359.26 1573.24,2357.24 1572.39,2354.67C1571.17,2350.98 1573.65,2348.83 1571.64,2344.7C1569,2339.29 1558.43,2334.64 1550.8,2335.08C1530.63,2336.24 1522.15,2350.8 1521.45,2371.37C1521.45,2390.83 1530.01,2406 1547.25,2414.38ZM1538.46,2341.29C1542.08,2341.08 1545.09,2342.75 1546.69,2344.28C1548.46,2345.97 1545.79,2349.47 1544.24,2348.74C1541.98,2347.69 1537.72,2348.18 1535.68,2348.8C1533.5,2349.47 1531.37,2347.34 1532.18,2345.48C1533.37,2342.76 1536,2341.43 1538.46,2341.29ZM1587.6,2348.91C1587.14,2349.21 1587.03,2350.9 1587.65,2351.49C1588.29,2352.11 1590.98,2352.89 1591.44,2352.59C1591.89,2352.29 1591.04,2350.28 1590.4,2349.67C1589.76,2349.06 1588.05,2348.6 1587.6,2348.91ZM1641.31,2437.56C1634.09,2437.56 1628.23,2443.42 1628.23,2450.64C1628.23,2457.86 1634.09,2463.73 1641.31,2463.73C1648.53,2463.73 1654.39,2457.86 1654.39,2450.64C1654.39,2443.42 1648.53,2437.56 1641.31,2437.56ZM1643.14,2441.28L1644.71,2447.24L1650.68,2448.82C1651.51,2449.03 1652.09,2449.78 1652.09,2450.64C1652.09,2451.5 1651.51,2452.25 1650.68,2452.47L1644.71,2454.04L1643.14,2460.01C1642.92,2460.84 1642.17,2461.42 1641.31,2461.42C1640.45,2461.42 1639.7,2460.84 1639.49,2460.01L1637.91,2454.04L1631.95,2452.47C1631.12,2452.25 1630.54,2451.5 1630.54,2450.64C1630.54,2449.78 1631.12,2449.03 1631.95,2448.82L1637.91,2447.24L1639.49,2441.28C1639.7,2440.45 1640.45,2439.87 1641.31,2439.87C1642.17,2439.87 1642.92,2440.45 1643.14,2441.28ZM1665.75,2414.38C1683,2406 1691.56,2390.83 1691.55,2371.37C1690.85,2350.8 1682.38,2336.24 1662.21,2335.08C1654.57,2334.64 1644,2339.29 1641.37,2344.7C1639.35,2348.83 1641.84,2350.98 1640.62,2354.67C1639.77,2357.24 1636.08,2359.26 1633.9,2359.7C1635.17,2359.72 1639.69,2361.65 1639.77,2362.77C1643.91,2363.12 1645.96,2363.47 1647.8,2364.82C1649.86,2366.33 1651.43,2366.9 1652.36,2372.68C1653.21,2376.89 1655.25,2378.31 1658.24,2379.51C1657.11,2373.18 1656.69,2369.78 1657.16,2364.96C1657.72,2359.28 1659.85,2350.77 1662.48,2350.78C1665.42,2350.79 1667.84,2360.15 1668.42,2364.99C1668.94,2369.45 1668.19,2375.08 1667.46,2378.41C1669.26,2376.07 1676.17,2371.84 1680.76,2371.99C1684.35,2372.12 1689.57,2374.48 1689.27,2379.47C1689.1,2382.24 1687.4,2384.39 1684.64,2384.8C1680.97,2384.38 1678.16,2382.33 1676.7,2380.73C1673.94,2383.39 1671.32,2386.09 1668.18,2386.89C1668.24,2390.03 1667.64,2392.56 1666.21,2394.22C1665.83,2397.12 1665.63,2398.85 1665.84,2401.84C1668.94,2401.97 1670.74,2403.69 1670.4,2407C1670.23,2409.49 1668.36,2412.33 1665.75,2414.38ZM1674.55,2341.29C1677,2341.43 1679.63,2342.76 1680.82,2345.48C1681.63,2347.34 1679.51,2349.47 1677.33,2348.8C1675.29,2348.18 1671.03,2347.69 1668.77,2348.74C1667.21,2349.47 1664.55,2345.97 1666.31,2344.28C1667.91,2342.75 1670.92,2341.08 1674.55,2341.29ZM1625.41,2348.91C1624.95,2348.6 1623.25,2349.06 1622.61,2349.67C1621.97,2350.28 1621.11,2352.29 1621.57,2352.59C1622.03,2352.89 1624.71,2352.11 1625.35,2351.49C1625.98,2350.9 1625.87,2349.21 1625.41,2348.91ZM1606.5,2528.89L1597.98,2537.41L1606.5,2545.93L1615.02,2537.41L1606.5,2528.89Z" style="fill:white;stroke:black;stroke-width:2.08px;"/>
        </g>
    </g>
</svg>
