<?xml version="1.0" encoding="UTF-8" standalone="no"?>
<!DOCTYPE svg PUBLIC "-//W3C//DTD SVG 1.1//EN" "http://www.w3.org/Graphics/SVG/1.1/DTD/svg11.dtd">
<svg width="100%" height="100%" viewBox="0 0 497 618" version="1.1" xmlns="http://www.w3.org/2000/svg" xmlns:xlink="http://www.w3.org/1999/xlink" xml:space="preserve" xmlns:serif="http://www.serif.com/" style="fill-rule:evenodd;clip-rule:evenodd;stroke-linecap:round;stroke-linejoin:round;stroke-miterlimit:1.5;">
    <g transform="matrix(1,0,0,1,-421.165,-1286.56)">
        <g transform="matrix(1,0,0,1,-1160.96,869.88)">
            <g transform="matrix(1,0,0,1,358.37,-1406.69)">
                <path d="M1223.75,2192.53L1223.75,1823.36L1719.8,1823.36L1719.8,2192.53C1719.8,2329.42 1608.67,2440.56 1471.78,2440.56C1334.89,2440.56 1223.75,2329.42 1223.75,2192.53Z" style="fill:rgb(208,36,7);"/>
            </g>
            <g transform="matrix(1,0,0,1,581.118,-216.95)">
                <path d="M1140.07,844.48C1138.99,845.91 1137.9,845.947 1136.81,844.85L1131.56,839.739C1131.56,839.739 1123.29,874.27 1117.13,878.031C1114.02,879.926 1097.33,867.639 1095.81,864.195C1094.06,860.215 1097.33,846.272 1097.33,846.272C1098.87,836.282 1099.14,826.936 1097.6,818.502C1096.03,821.998 1093.92,824.428 1091.03,825.321C1087.45,824.655 1083.23,823.581 1082.16,820.368C1080.62,815.717 1081.14,805.04 1081.78,797.413C1082.42,789.621 1082.72,781.366 1086.06,773.616L1102.96,742.477C1108.24,734.031 1116.9,730.551 1128.11,730.805C1128.11,730.805 1139.82,715.514 1140.78,709.758C1142.07,701.993 1134.29,693.405 1128.71,695.799C1127.57,696.292 1115.28,709.028 1110.85,705.481C1104.66,700.529 1110.57,687.045 1123.14,680.057C1123.5,667.949 1128.06,659.193 1139.48,655.939C1161.61,652.883 1170.63,663.404 1168.79,685.165C1186.56,677.039 1204.43,672.863 1222.4,672.811C1226.85,657.514 1234.47,647.368 1248.4,647.625C1261.43,648.559 1267.19,657.596 1267.46,672.751C1279.53,674.447 1290.7,678.257 1300.97,684.176C1313.53,669.22 1327.33,664.912 1340.06,674.792C1351.9,686.943 1348.71,699.668 1339.03,710.043L1346.37,718.459C1362.73,709.705 1375.31,710.057 1382.48,723.473C1388.25,741.55 1379.78,753.648 1362.46,761.928L1363.51,765.415C1381.33,762.057 1391.32,767.681 1392.41,783.54C1393.69,796.69 1384.14,804.339 1366.52,807.429L1366.35,815.457C1386.61,815.951 1392.73,829.212 1390.61,839.647C1388.1,852.008 1375.07,860.303 1356.73,858.834L1351.95,866.701C1365.13,873.57 1369.88,883.312 1366.2,895.918C1358.24,911.468 1345.95,914.732 1329.36,905.792L1315.52,925.596L1328.4,944.204C1335.6,931.619 1345.54,920.181 1358.14,909.847C1361.65,912.704 1363.01,916.008 1363.19,919.552C1379.12,911.274 1395.65,909.325 1412.88,914.667C1406.52,944.645 1385.93,966.253 1355.77,982.229L1378.19,999.921C1385.63,978.293 1402.47,966.072 1428.37,962.935C1433.75,989.931 1428.21,1015.37 1412.17,1039.3C1419.57,1034.24 1427.64,1031.96 1436.72,1033.73C1435.85,1099.65 1361.52,1148.48 1325.53,1148.25L1325.53,1174.03L1183.15,1174.03L1183.15,1148.25C1144.36,1147.69 1111.32,1133.84 1089.22,1099.59C1065.66,1063.1 1075.73,971.861 1184.92,914.031C1170.2,920.792 1154.78,916.523 1149.32,901.543C1146.13,892.786 1149.2,875.433 1157.94,865.051L1156.33,859.453C1169.2,852.504 1174.7,836.43 1163.57,829.162C1146.29,821.746 1140.11,844.382 1140.07,844.48ZM1298.71,811.093C1308.34,788.745 1307.5,766.249 1298.11,743.633C1292.48,761.749 1284.14,765.838 1273.22,756.538C1283.72,749.448 1283.36,740.795 1276.78,731.246C1277.59,727.784 1281.98,727.939 1287.87,729.611C1277.88,718.865 1264.49,711.386 1247.03,707.785C1264.92,722.414 1262.43,733.481 1249.09,741.577C1246.44,723.183 1240.39,716.09 1223.61,719.539C1221.55,719.183 1221.17,718.012 1222.33,716.101C1226.87,713.413 1230.11,710.614 1230.94,707.607C1214.43,705.95 1199.01,710.016 1185.01,721.497C1191.18,722.246 1195.5,724.717 1196.48,727.146C1197.96,730.824 1181.83,735.765 1185.58,741.422C1189.55,747.415 1206.17,740.143 1209.41,743.967C1220.22,738.429 1231.44,736.882 1243.49,743.062C1246.26,741.699 1249.9,741.391 1254.18,741.86C1277.44,756.726 1282.65,772.939 1268.4,790.604C1292.32,784.172 1301.69,791.705 1298.71,811.093ZM1168.37,1009.1L1184.26,989.4L1168.37,969.697C1165.4,975.628 1163.72,982.32 1163.72,989.4C1163.72,996.479 1165.4,1003.17 1168.37,1009.1ZM1142.15,814.069C1163.69,808.052 1177.02,817.428 1182.51,837.916C1192.57,829.144 1203.81,819.807 1217.42,819.952C1218.63,811.813 1223.38,805.823 1231.57,801.921C1234.69,797.526 1235.83,793.191 1234.28,788.938C1231.34,791.63 1228.86,793.263 1227.16,793.14C1225.02,792.909 1223.37,791.697 1222.07,789.757C1219.08,806.536 1202.54,810.216 1191.57,810.352C1172.88,810.584 1165.8,797.708 1166.94,786.301C1167.77,778.054 1173.82,764.077 1191,768.343C1192.66,762.526 1195.09,757.349 1201.29,754.218C1173.6,761.086 1160.74,754.957 1169.77,729.611C1161.02,738.304 1155.37,747.631 1155.06,758.044C1162.34,761.751 1160.37,768.974 1158.05,775.25C1154.74,784.239 1146.96,802.172 1142.15,814.069ZM1205.15,1033.42L1196.04,1009.81L1171.04,1013.72C1178.47,1024.94 1190.91,1032.57 1205.15,1033.42ZM1142.13,686.654C1143.95,691.229 1147.96,694.386 1151.7,695.65C1160.34,687.083 1161.26,676.697 1149.9,671.006C1145.9,669.229 1141.24,670.933 1138.87,674.434C1150.33,674.635 1154.81,677.672 1142.13,686.654ZM1244.6,1013.72L1219.6,1009.81L1210.48,1033.42C1224.73,1032.57 1237.16,1024.94 1244.6,1013.72ZM1171.04,965.085L1196.04,968.994L1205.15,945.384C1190.91,946.235 1178.47,953.863 1171.04,965.085ZM1207.6,758.846C1202.45,761.736 1201.51,765.349 1203.23,769.419C1213.06,767.337 1220.3,770.156 1225.18,777.397C1245.81,764.198 1248.03,777.342 1240.16,804.926C1250.7,799.144 1259.38,790.301 1264.61,775.785C1261.36,775.889 1259.15,774.204 1258.15,770.416C1260.59,761.926 1255.96,755.666 1244.42,751.588C1228.86,747.448 1222.22,751.919 1219.66,760.333C1215,763.44 1210.99,762.915 1207.6,758.846ZM1199.12,901.927L1231.57,882.247C1219.94,882.514 1214.2,876.331 1216.01,865.574C1223.15,868.572 1232.41,866.208 1230.77,856.841C1228.37,846.958 1218.96,843.937 1201.89,848.428C1193.69,852.289 1186.82,858.718 1181.33,867.866C1177.4,870.821 1173.46,871.596 1169.53,870.496C1161.66,886.146 1161.71,897.38 1175.71,900.825C1183.67,901.094 1189.65,894.743 1193.16,880.192C1200.77,884.235 1203.36,891.134 1199.12,901.927ZM1249.19,868.87C1265.72,855.683 1280.61,841.528 1293.48,826.18C1282.52,836.24 1274.86,833.996 1272.42,822.46C1282.36,821.213 1289.22,817.187 1285.95,807.62C1278.67,800.253 1269.92,799.955 1259.62,807.151C1251.11,816.774 1242.42,822.611 1233.57,824.378C1222.38,827.685 1216,830.681 1214.88,833.335C1245.31,831.173 1258.66,841.735 1249.19,868.87ZM1210.48,945.384L1219.6,968.994L1244.6,965.085C1237.16,953.863 1224.73,946.235 1210.48,945.384ZM1247.27,969.697L1231.38,989.4L1247.27,1009.1C1250.24,1003.17 1251.91,996.479 1251.91,989.4C1251.91,982.32 1250.24,975.628 1247.27,969.697Z" style="fill:white;stroke:black;stroke-width:4.17px;"/>
            </g>
            <g transform="matrix(0.880076,0,0,0.880076,517.734,-1169.59)">
                <path d="M1330.98,1962.32C1331.78,1960.29 1335,1959.94 1335.73,1960.95C1336.45,1961.95 1334.76,1966.97 1334.49,1968.93C1334.32,1970.14 1335.17,1971.64 1336.29,1972.1C1338.21,1972.89 1342.86,1977.34 1342.14,1982.77C1341.48,1987.87 1334.3,1993.23 1327.05,1990.68C1325.58,1990.16 1323.96,1989.96 1322.49,1991.74C1321.26,1993.54 1319.93,1994.65 1318.51,1995.21C1317.9,1995.42 1317.29,1995.18 1316.68,1994.41C1315.77,1992.95 1316,1990.85 1317.52,1988.04C1323.62,1980.23 1328.26,1971.73 1330.98,1962.32ZM1329.4,1980.16C1325.3,1987.61 1333.78,1987.41 1336.42,1984.76C1337.34,1983.84 1338.61,1980.44 1335.12,1978.24C1331.83,1976.17 1329.57,1979.9 1329.4,1980.16Z"/>
            </g>
        </g>
    </g>
</svg>
